<?xml version="1.0" standalone="no"?>
<!DOCTYPE svg PUBLIC "-//W3C//DTD SVG 20010904//EN"
 "http://www.w3.org/TR/2001/REC-SVG-20010904/DTD/svg10.dtd">
<svg version="1.0" xmlns="http://www.w3.org/2000/svg"
 width="552.000000pt" height="552.000000pt" viewBox="0 0 552.000000 552.000000"
 preserveAspectRatio="xMidYMid meet">
<metadata>
Created by potrace 1.14, written by Peter Selinger 2001-2017
</metadata>
<g transform="translate(0.000000,552.000000) scale(0.100000,-0.100000)"
fill="#000000" stroke="none">
<path d="M2538 5295 c-1 -2 -32 -6 -68 -8 -36 -3 -77 -8 -90 -11 -14 -3 -43
-7 -65 -10 -138 -17 -363 -72 -520 -126 -132 -47 -348 -139 -353 -152 -2 -4
-12 -8 -22 -8 -9 0 -23 -7 -30 -15 -6 -8 -21 -17 -33 -21 -21 -6 -187 -103
-197 -114 -3 -3 -37 -27 -76 -53 -144 -96 -352 -284 -485 -437 -176 -203 -330
-457 -434 -715 -49 -122 -116 -358 -130 -463 -3 -20 -8 -47 -11 -60 -13 -62
-18 -165 -18 -352 0 -184 4 -247 19 -330 2 -14 7 -43 10 -66 4 -32 38 -176 59
-254 72 -261 250 -602 434 -834 197 -247 474 -489 742 -644 102 -60 201 -110
365 -183 115 -52 486 -160 595 -173 25 -3 59 -8 75 -11 17 -3 46 -8 65 -11
112 -19 536 -26 670 -12 36 4 83 9 105 12 22 2 67 9 100 15 33 6 76 13 95 16
19 3 53 11 75 16 22 6 47 12 55 14 127 24 557 181 568 207 2 4 10 8 18 8 13 0
52 18 64 30 3 3 34 20 70 39 125 65 357 227 473 330 68 61 189 183 247 250 30
35 60 69 65 75 32 35 128 174 176 251 30 50 60 99 67 110 19 32 100 200 125
263 40 96 96 267 88 267 -3 0 1 9 7 21 10 20 15 38 27 102 3 15 8 38 11 52 10
44 13 61 20 119 3 31 10 79 14 106 9 53 5 436 -4 495 -3 19 -10 64 -16 100
-14 90 -19 119 -32 165 -5 22 -12 48 -14 57 -2 10 -6 26 -8 36 -12 53 -78 240
-94 267 -4 6 -7 17 -9 25 -3 24 -120 248 -176 340 -48 79 -132 198 -147 210
-3 3 -13 14 -21 26 -64 94 -271 303 -409 414 -30 25 -57 47 -60 50 -3 3 -12
10 -21 15 -8 6 -67 45 -131 88 -63 42 -119 77 -123 77 -5 0 -16 6 -24 14 -16
14 -201 108 -273 140 -21 9 -53 22 -70 30 -40 18 -117 45 -140 51 -9 2 -25 8
-35 13 -18 9 -188 58 -228 66 -11 2 -38 9 -60 14 -22 6 -56 13 -75 16 -19 3
-46 8 -60 11 -34 7 -66 12 -125 20 -27 4 -66 9 -85 12 -42 5 -527 13 -532 8z"/>
</g>
</svg>
